# Blender 4.1.1
# www.blender.org
mtllib fishesInSeaScene.mtl
o Piano.004
v 2.909811 -4.054308 -0.268012
v 2.877162 -1.888096 0.160444
v 2.948780 -4.025826 -0.399441
v 2.921680 -1.851170 0.026041
v 2.979906 -3.262309 0.155312
v 3.020292 -3.227735 0.018227
v 2.968975 -3.654212 -0.249435
v 2.933279 -3.688473 -0.115809
v 3.069459 -2.509360 0.331796
v 3.102375 -2.468741 0.193245
v 2.902601 -2.280192 0.220445
v 2.940439 -2.247408 0.080584
v 3.180046 -2.728011 0.172382
v 3.139853 -2.752399 0.309202
v 3.103727 -3.005134 0.106999
v 3.064785 -3.025256 0.242034
v 3.061442 -3.127137 0.062391
v 3.022588 -3.152733 0.197720
v 2.929327 -4.040383 -0.333834
v 2.899039 -1.917533 0.046945
v 3.001070 -3.260380 0.115141
v 2.951900 -3.672630 -0.181848
v 3.129200 -2.681297 0.260654
v 2.921440 -2.266570 0.149071
v 3.136673 -2.759374 0.283594
v 3.081024 -3.019242 0.185569
v 3.040239 -3.142826 0.141827
v 2.955898 -3.542003 0.040033
v 2.984871 -3.495131 -0.121336
v 2.971543 -3.514443 -0.052324
v 2.982446 -3.578210 -0.184641
v 2.967335 -3.597109 -0.116283
v 2.950462 -3.613152 -0.049282
v 2.909536 -1.860722 0.057726
v 3.011860 -3.238777 0.055562
v 2.960778 -3.663828 -0.215420
v 3.098646 -2.491598 0.231468
v 2.929752 -2.257329 0.114627
v 3.168954 -2.733168 0.211829
v 3.092611 -3.014410 0.152437
v 3.052823 -3.133701 0.101912
v 2.939087 -4.033200 -0.366658
v 2.978737 -3.505343 -0.086497
v 2.975178 -3.588307 -0.150259
v 2.977015 -3.616416 -0.216966
v 2.960319 -3.635151 -0.149200
v 2.942618 -3.650987 -0.082818
v 2.969048 -3.626243 -0.182833
v 2.973169 -3.635265 -0.233246
v 2.956276 -3.653852 -0.165570
v 2.965083 -3.644992 -0.199172
v 2.938051 -3.669751 -0.099406
v 2.936898 -3.819531 -0.364290
v 2.897660 -3.852240 -0.232172
v 2.917751 -3.836972 -0.297946
v 2.927450 -3.828519 -0.331044
v 2.919482 -4.047356 -0.300973
v 2.890971 -1.872167 0.123290
v 2.990853 -3.257073 0.123252
v 2.942492 -3.680744 -0.148704
v 3.079074 -2.505672 0.299027
v 2.911655 -2.261912 0.175702
v 3.150532 -2.745957 0.276834
v 3.075752 -3.020377 0.209326
v 3.033423 -3.147084 0.165225
v 2.963964 -3.523347 -0.017605
v 2.959094 -3.605300 -0.082808
v 2.951397 -3.643334 -0.115933
v 2.947047 -3.662064 -0.132396
v 2.907804 -3.844870 -0.264992
v 2.872158 -2.085618 0.172691
v 2.911558 -2.054821 0.035788
v 2.887792 -2.074920 0.103356
v 2.904818 -2.090058 0.077886
v 2.880384 -2.078665 0.137863
v 2.923481 -2.161591 0.042706
v 2.901323 -2.158722 0.120303
v 2.910941 -2.153941 0.088115
v 2.892039 -2.167804 0.154969
v 2.883799 -2.174754 0.189950
v 2.931233 -2.194151 0.061671
v 2.909057 -2.210608 0.132864
v 2.918536 -2.202387 0.098580
v 2.900736 -2.216542 0.167511
v 2.891973 -2.224894 0.202832
v 2.872158 -2.085618 0.172691
v 2.877162 -1.888096 0.160444
v 2.909536 -1.860722 0.057726
v 2.921680 -1.851170 0.026041
v 2.931233 -2.194151 0.061671
v 2.929752 -2.257329 0.114627
v 2.940439 -2.247408 0.080584
v 2.890971 -1.872167 0.123290
v 2.899039 -1.917533 0.046945
v 2.913427 -2.270611 0.178288
v 2.921440 -2.266570 0.149071
v 2.883799 -2.174754 0.189950
v 2.902601 -2.280192 0.220445
v 2.911558 -2.054821 0.035788
v 2.921345 -2.161103 0.052451
v 2.891984 -2.224884 0.202790
v 2.877162 -1.888096 0.160444
v 2.872158 -2.085618 0.172691
v 2.878184 -1.888696 0.161507
v 2.873179 -2.086223 0.173751
vn 0.9710 -0.0168 0.2383
vn 0.9706 -0.1973 0.1378
vn 0.9397 -0.3004 0.1634
vn 0.9295 0.2529 0.2686
vn 0.6181 0.6622 0.4236
vn 0.9345 -0.2988 0.1937
vn 0.9181 -0.3692 0.1444
vn 0.9062 -0.4090 0.1073
vn 0.8049 -0.4166 0.4225
vn 0.9096 -0.3691 0.1910
vn 0.9158 -0.1034 -0.3881
vn 0.8729 0.4037 -0.2739
vn 0.9243 0.2284 -0.3057
vn 0.9248 -0.3290 0.1911
vn 0.8955 -0.2947 0.3335
vn 0.9883 -0.0302 0.1493
vn 0.9656 -0.1914 0.1760
vn 0.9782 -0.1472 0.1462
vn 0.9555 -0.2614 0.1365
vn 0.9334 -0.3206 0.1614
vn 0.9429 -0.2956 0.1537
vn 0.9701 -0.1751 0.1681
vn 0.9245 -0.3668 0.1039
vn 0.8960 -0.3839 0.2232
vn 0.9073 -0.3054 0.2891
vn -0.0653 0.2974 0.9525
vn 0.8562 0.2132 0.4706
vn 0.9319 -0.3163 0.1778
vn 0.9737 -0.1910 0.1242
vn 0.2381 0.1792 0.9546
vn 0.9300 -0.3337 0.1544
vn 0.9216 -0.3514 0.1650
vn 0.9413 -0.3105 0.1325
vn 0.9368 -0.3240 0.1320
vn 0.9160 -0.3643 0.1677
vn 0.9258 -0.3458 0.1528
vn 0.9588 0.0048 0.2841
vn 0.9574 0.0037 0.2888
vn 0.9600 0.0067 0.2800
vn 0.9572 0.0050 0.2894
vn 0.9133 -0.3723 0.1653
vn 0.9179 -0.3619 0.1628
vn 0.9279 -0.3346 0.1646
vn 0.9740 -0.1899 0.1232
vn 0.9576 -0.0179 0.2875
vn 0.9727 -0.1666 0.1618
vn 0.9217 -0.3356 0.1944
vn 0.9159 0.2389 0.3225
vn 0.6955 0.6506 0.3050
vn 0.9163 -0.3125 0.2504
vn 0.8940 -0.3799 0.2376
vn 0.8764 -0.4263 0.2238
vn 0.9501 0.1740 0.2588
vn 0.9037 0.1908 0.3833
vn 0.9459 0.1896 0.2634
vn 0.9573 0.1303 0.2581
vn 0.9168 0.2681 0.2958
vn 0.9321 0.2233 0.2851
vn 0.9274 0.2124 0.3080
vn 0.9332 0.2302 0.2758
vn 0.9163 0.2715 0.2942
vn 0.9087 0.2827 0.3070
vn 0.9195 0.2783 0.2775
vn 0.8862 0.2852 0.3651
vn -0.0000 -1.0000 -0.0000
vn 0.8820 -0.3549 0.3100
vn -0.0000 1.0000 -0.0000
vn 0.5749 0.7929 0.2021
vn 0.7881 -0.3628 -0.4973
vn 0.6426 0.6501 -0.4055
vn 0.6269 0.7534 -0.1984
vn 0.8740 -0.3995 -0.2766
vn 0.6456 0.6569 -0.3896
vn 0.7919 -0.3800 -0.4780
vn -0.9659 0.0526 -0.2535
vn -0.8748 0.4267 -0.2296
vn 0.9175 0.2729 0.2894
vn -0.5516 -0.1451 0.8214
vn -0.3973 0.7016 0.5915
vn 0.6505 0.6619 -0.3726
vn 0.7971 -0.3950 -0.4567
vn 0.8555 -0.3865 -0.3446
vn 0.6925 0.6653 -0.2790
vn 0.9144 0.2747 0.2973
vn 0.8215 -0.3671 -0.4363
vn 0.5640 0.7695 -0.2995
vn 0.4563 0.7906 0.4084
vn 0.6992 -0.3458 0.6258
vn 0.9708 0.1218 0.2066
vn 0.9279 0.2258 0.2966
vn 0.9314 0.2225 0.2881
vn 0.9314 0.2224 0.2881
vn 0.9258 0.3290 0.1864
vn 0.9188 0.2725 0.2857
vn 0.9161 0.2706 0.2957
vn 0.7019 -0.0618 -0.7096
vt 0.937500 0.750000
vt 0.937500 1.000000
vt 1.000000 1.000000
vt 1.000000 0.750000
vt 0.375000 0.750000
vt 0.375000 1.000000
vt 0.500000 1.000000
vt 0.500000 0.750000
vt 0.125000 0.750000
vt 0.125000 1.000000
vt 0.250000 1.000000
vt 0.250000 0.750000
vt 0.625000 0.750000
vt 0.625000 1.000000
vt 0.750000 1.000000
vt 0.750000 0.750000
vt 0.875000 1.000000
vt 0.875000 0.750000
vt 0.562500 0.750000
vt 0.562500 1.000000
vt 0.531250 0.750000
vt 0.531250 1.000000
vt 0.500000 0.250000
vt 0.500000 0.500000
vt 0.531250 0.500000
vt 0.531250 0.250000
vt 0.562500 0.500000
vt 0.562500 0.250000
vt 0.625000 0.500000
vt 0.625000 0.250000
vt 0.750000 0.250000
vt 0.750000 0.500000
vt 0.875000 0.500000
vt 0.875000 0.250000
vt 0.125000 0.250000
vt 0.125000 0.500000
vt 0.250000 0.500000
vt 0.250000 0.250000
vt 0.375000 0.250000
vt 0.375000 0.500000
vt 0.937500 0.250000
vt 0.937500 0.500000
vt 1.000000 0.500000
vt 1.000000 0.250000
vt 0.312500 0.250000
vt 0.312500 0.500000
vt 0.312500 0.750000
vt 0.312500 1.000000
vt 0.281250 0.750000
vt 0.281250 1.000000
vt 0.281250 0.250000
vt 0.281250 0.500000
vt 0.265625 0.500000
vt 0.265625 0.750000
vt 0.265625 0.250000
vt 0.265625 1.000000
vt 0.000000 0.500000
vt 0.000000 0.750000
vt 0.000000 0.250000
vt 0.000000 1.000000
vt 0.000000 0.000000
vt 0.125000 0.000000
vt 0.250000 0.000000
vt 0.265625 0.000000
vt 0.281250 0.000000
vt 0.312500 0.000000
vt 0.375000 0.000000
vt 0.937500 0.000000
vt 1.000000 0.000000
vt 0.500000 0.000000
vt 0.625000 0.000000
vt 0.750000 0.000000
vt 0.875000 0.000000
vt 0.562500 0.000000
vt 0.531250 0.000000
vt 0.906250 0.000000
vt 0.906250 0.250000
vt 0.906250 0.500000
vt 0.906250 0.750000
vt 0.906250 1.000000
vt 0.890625 0.750000
vt 0.890625 1.000000
vt 0.890625 0.250000
vt 0.890625 0.500000
vt 0.890625 0.000000
s 0
usemtl Materiale.005
f 74/1/1 99/2/1 89/3/1 88/4/1
f 43/5/2 29/6/2 6/7/2 35/8/2
f 56/9/3 53/10/3 7/11/3 36/12/3
f 39/13/4 13/14/4 10/15/4 37/16/4
f 37/16/5 10/15/5 12/17/5 91/18/5
f 40/19/6 15/20/6 13/14/6 39/13/6
f 41/21/7 17/22/7 15/20/7 40/19/7
f 35/8/8 6/7/8 17/22/8 41/21/8
f 59/23/9 21/24/9 27/25/9 65/26/9
f 65/26/10 27/25/10 26/27/10 64/28/10
f 64/28/11 26/27/11 25/29/11 63/30/11
f 61/31/12 23/32/12 96/33/12 95/34/12
f 63/30/13 25/29/13 23/32/13 61/31/13
f 70/35/14 55/36/14 22/37/14 60/38/14
f 66/39/15 30/40/15 21/24/15 59/23/15
f 75/41/16 73/42/16 94/43/16 93/44/16
f 67/45/17 32/46/17 30/40/17 66/39/17
f 44/47/18 31/48/18 29/6/18 43/5/18
f 48/49/19 45/50/19 31/48/19 44/47/19
f 68/51/20 46/52/20 32/46/20 67/45/20
f 46/52/21 48/49/21 44/47/21 32/46/21
f 32/46/22 44/47/22 43/5/22 30/40/22
f 21/24/23 35/8/23 41/21/23 27/25/23
f 27/25/24 41/21/24 40/19/24 26/27/24
f 26/27/25 40/19/25 39/13/25 25/29/25
f 23/32/26 37/16/26 91/18/26 96/33/26
f 25/29/27 39/13/27 37/16/27 23/32/27
f 55/36/28 56/9/28 36/12/28 22/37/28
f 30/40/29 43/5/29 35/8/29 21/24/29
f 73/42/30 74/1/30 88/4/30 94/43/30
f 50/53/31 51/54/31 48/49/31 46/52/31
f 69/55/32 50/53/32 46/52/32 68/51/32
f 51/54/33 49/56/33 45/50/33 48/49/33
f 36/12/34 7/11/34 49/56/34 51/54/34
f 60/38/35 22/37/35 50/53/35 69/55/35
f 22/37/36 36/12/36 51/54/36 50/53/36
f 19/57/37 42/58/37 56/9/37 55/36/37
f 57/59/38 19/57/38 55/36/38 70/35/38
f 42/58/39 3/60/39 53/10/39 56/9/39
f 1/61/40 57/59/40 70/35/40 54/62/40
f 8/63/41 60/38/41 69/55/41 52/64/41
f 52/64/42 69/55/42 68/51/42 47/65/42
f 47/65/43 68/51/43 67/45/43 33/66/43
f 33/66/44 67/45/44 66/39/44 28/67/44
f 86/68/45 75/41/45 93/44/45 87/69/45
f 28/67/46 66/39/46 59/23/46 5/70/46
f 54/62/47 70/35/47 60/38/47 8/63/47
f 14/71/48 63/30/48 61/31/48 9/72/48
f 9/72/49 61/31/49 95/34/49 11/73/49
f 16/74/50 64/28/50 63/30/50 14/71/50
f 18/75/51 65/26/51 64/28/51 16/74/51
f 5/70/52 59/23/52 65/26/52 18/75/52
f 97/76/53 79/77/53 75/41/53 86/68/53
f 77/78/54 78/79/54 74/1/54 73/42/54
f 79/77/55 77/78/55 73/42/55 75/41/55
f 78/79/56 100/80/56 99/2/56 74/1/56
f 83/81/57 90/82/57 100/80/57 78/79/57
f 84/83/58 82/84/58 77/78/58 79/77/58
f 82/84/59 83/81/59 78/79/59 77/78/59
f 101/85/60 84/83/60 79/77/60 97/76/60
f 98/73/61 62/34/61 84/83/61 101/85/61
f 24/33/62 38/18/62 83/81/62 82/84/62
f 62/34/63 24/33/63 82/84/63 84/83/63
f 38/18/64 92/17/64 90/82/64 83/81/64
f 87/69/65 2/69/66 71/68/67 86/68/68
f 89/3/65 4/3/69 34/4/67 88/4/70
f 92/17/67 12/17/71 81/82/65 90/82/72
f 38/18/67 91/18/73 12/17/65 92/17/74
f 94/43/67 20/43/75 58/44/67 93/44/76
f 62/34/77 95/34/77 96/33/77 24/33/77
f 88/4/65 34/4/78 20/43/67 94/43/79
f 24/33/67 96/33/80 91/18/65 38/18/81
f 93/44/65 58/44/82 2/69/67 87/69/83
f 98/73/84 11/73/84 95/34/84 62/34/84
f 86/68/65 71/68/85 80/76/67 97/76/86
f 99/2/67 72/2/87 4/3/65 89/3/88
f 100/80/89 76/80/89 72/2/89 99/2/89
f 97/76/90 80/76/91 85/85/92 101/85/91
f 90/82/93 81/82/93 76/80/93 100/80/93
f 101/85/94 85/85/94 11/73/95 98/73/94
f 2/69/65 102/69/66 103/68/67 71/68/68
f 102/69/96 104/69/96 105/68/96 103/68/96
